<?xml version="1.0" standalone="no"?>
<!DOCTYPE svg PUBLIC "-//W3C//DTD SVG 20010904//EN"
 "http://www.w3.org/TR/2001/REC-SVG-20010904/DTD/svg10.dtd">
<svg version="1.0" xmlns="http://www.w3.org/2000/svg"
 width="200.000000pt" height="200.000000pt" viewBox="0 0 200.000000 200.000000"
 preserveAspectRatio="xMidYMid meet">
<metadata>
Created by potrace 1.11, written by Peter Selinger 2001-2013
</metadata>
<g transform="translate(0.000000,200.000000) scale(0.100000,-0.100000)"
fill="#000000" stroke="none">
<path d="M963 1615 c-20 -14 -22 -28 -11 -61 1 -5 -19 -60 -47 -121 -65 -144
-61 -143 -247 -61 -104 46 -138 65 -138 79 0 24 -40 67 -65 70 -48 6 -98 -37
-90 -77 2 -10 4 -22 4 -26 1 -5 10 -17 21 -28 23 -23 68 -26 94 -7 17 12 35 7
145 -43 l126 -57 2 -48 c2 -47 1 -50 -67 -117 -60 -60 -72 -68 -89 -59 -43 23
-102 11 -148 -32 l-22 -20 -96 44 c-81 37 -99 49 -110 76 -24 56 -107 55 -121
-2 -14 -55 47 -103 93 -75 15 10 36 4 121 -35 56 -27 102 -53 103 -59 2 -30
10 -59 24 -79 14 -22 12 -28 -38 -100 -28 -42 -58 -77 -64 -77 -7 0 -22 -9
-32 -19 -25 -25 -17 -59 16 -72 36 -13 63 5 63 42 0 19 17 56 50 104 49 72 51
74 87 71 21 -2 55 3 76 12 l39 15 56 -40 c44 -31 57 -46 58 -67 3 -89 102
-123 149 -52 13 19 40 33 113 55 190 58 176 56 211 30 34 -25 84 -33 114 -17
14 7 30 -3 82 -53 35 -34 65 -71 67 -82 7 -51 90 -51 102 -1 12 45 -28 83 -71
70 -12 -3 -37 12 -74 47 -56 52 -57 52 -52 102 4 43 2 54 -19 75 -13 14 -32
30 -43 35 -16 10 -18 26 -18 164 0 130 3 155 16 162 12 7 48 -10 134 -61 l118
-69 99 -140 c54 -76 99 -143 98 -148 -2 -40 50 -57 69 -22 9 18 6 25 -23 52
-19 18 -72 86 -118 151 l-84 119 30 26 c112 98 138 116 171 117 64 2 95 62 53
104 -38 38 -101 16 -102 -37 -1 -23 -18 -42 -90 -103 -49 -41 -93 -74 -98 -73
-5 2 -48 26 -97 55 -48 29 -96 56 -105 60 -10 4 -18 14 -18 22 0 51 -52 92
-96 76 -17 -7 -39 6 -115 67 -113 90 -110 87 -113 106 -3 23 -26 47 -45 47 -9
0 -26 -7 -38 -15z m165 -166 c87 -68 102 -84 102 -109 0 -19 9 -35 26 -49 l26
-20 -1 -152 c0 -85 -5 -157 -10 -162 -12 -12 -36 6 -181 133 -58 51 -120 104
-137 117 -18 14 -33 33 -33 42 0 9 -6 26 -14 37 -13 17 -9 29 29 114 53 116
62 130 78 130 7 0 58 -36 115 -81z m-150 -316 c37 -32 69 -60 72 -63 7 -7 154
-133 159 -137 2 -1 -2 -22 -8 -46 l-13 -44 -106 -32 c-59 -18 -118 -36 -132
-40 -20 -6 -30 -2 -52 21 -27 29 -64 36 -96 19 -13 -7 -32 2 -77 34 -60 43
-60 44 -57 88 2 25 -1 54 -7 65 -9 18 -2 29 56 89 61 62 70 68 111 69 25 1 51
9 60 18 9 9 18 16 20 16 2 0 34 -26 70 -57z"/>
<path d="M533 605 c-12 -8 -23 -25 -25 -38 -2 -12 -9 -21 -16 -19 -7 1 -12 -9
-12 -23 0 -15 5 -24 13 -23 8 2 13 -12 14 -42 0 -25 2 -55 2 -67 1 -18 7 -23
26 -23 24 0 25 2 25 70 0 62 2 71 18 68 11 -2 18 4 20 18 2 16 -2 22 -15 20
-10 0 -18 6 -18 14 0 8 9 15 20 15 13 0 21 8 23 23 3 18 -1 22 -25 22 -16 0
-38 -7 -50 -15z"/>
<path d="M1199 613 c-1 -12 -1 -194 0 -220 1 -18 7 -23 26 -23 24 0 25 3 25
60 0 48 4 61 19 70 11 5 27 7 35 4 15 -6 30 -55 26 -85 -6 -37 1 -49 26 -49
l26 0 -4 76 c-4 91 -19 108 -85 101 l-43 -5 0 39 c0 35 -3 39 -25 39 -14 0
-25 -3 -26 -7z"/>
<path d="M1060 570 c0 -10 -7 -23 -17 -28 -10 -6 -14 -16 -10 -26 4 -10 11
-14 17 -11 6 4 10 -12 10 -42 0 -67 21 -95 68 -91 43 4 51 29 12 38 -22 5 -25
11 -25 50 0 29 5 45 13 46 6 1 17 2 22 3 6 0 10 8 10 16 0 8 -4 16 -10 16 -5
1 -16 2 -22 3 -7 0 -14 11 -16 24 -4 29 -52 32 -52 2z"/>
<path d="M635 537 c-28 -21 -10 -38 34 -31 27 4 40 2 50 -10 7 -9 12 -16 10
-17 -2 0 -20 -2 -39 -4 -19 -1 -40 -3 -46 -4 -19 -2 -35 -50 -24 -71 13 -24
31 -29 102 -28 l56 1 4 55 c3 61 -11 106 -37 116 -29 11 -90 7 -110 -7z m95
-103 c0 -20 -32 -34 -53 -22 -14 7 -15 13 -7 23 14 17 60 16 60 -1z"/>
<path d="M828 494 c-4 -68 12 -112 44 -118 13 -3 48 -4 78 -3 l55 2 2 88 1 87
-27 0 c-27 0 -27 -2 -26 -51 2 -65 -20 -98 -53 -80 -19 10 -22 20 -22 71 0 57
-1 60 -24 60 -22 0 -24 -4 -28 -56z"/>
</g>
</svg>
